<svg xmlns="http://www.w3.org/2000/svg" width="20" height="24" fill="none" viewBox="0 0 20 24"><path fill="#000" d="M9.95 21.29h-.97L8.71 19H1.94l-.27 2.29H.7v-3.55h1.06c.1-.13.23-.37.38-.7.16-.35.3-.83.45-1.44.16-.63.29-1.4.4-2.3.12-.93.19-2.03.21-3.3h5.44v7.74h1.31v3.55ZM7.2 17.74v-6.48H4.5a32.07 32.07 0 0 1-.38 3.44c-.1.59-.22 1.14-.38 1.67-.15.53-.33.99-.54 1.37h4Zm4.03-3.24c0-1.52.34-2.69 1.01-3.5a3.61 3.61 0 0 1 2.93-1.22c.68 0 1.26.12 1.75.35.5.21.92.53 1.24.95.33.4.57.9.72 1.5.16.57.24 1.21.24 1.92 0 1.52-.35 2.7-1.03 3.51-.67.8-1.64 1.2-2.92 1.2-.67 0-1.26-.1-1.76-.32-.5-.23-.9-.54-1.22-.95a4.22 4.22 0 0 1-.72-1.5 7.57 7.57 0 0 1-.24-1.94Zm1.5 0c0 .46.04.9.12 1.31.1.42.24.79.43 1.1a2.12 2.12 0 0 0 1.89 1.04c1.64.02 2.45-1.13 2.45-3.45 0-.47-.05-.91-.14-1.33a3.32 3.32 0 0 0-.42-1.1 2.12 2.12 0 0 0-1.89-1.03c-1.63 0-2.44 1.14-2.44 3.46Z" opacity=".3"/></svg>